<svg height='100px' width='100px'  fill="#000000" xmlns="http://www.w3.org/2000/svg" xmlns:xlink="http://www.w3.org/1999/xlink" version="1.1" x="0px" y="0px" viewBox="0 0 96 96" enable-background="new 0 0 96 96" xml:space="preserve"><g><path d="M14.633,35.368c-1.427,0-2.854,0-4.28,0c-0.693,0-1.219,0.388-1.596,0.97c-0.023,0.029-0.042,0.063-0.066,0.096   c-0.02,0.033-0.042,0.064-0.061,0.099C8.252,37.112,8,37.923,8,38.988c0,1.487,0,2.972,0,4.459c0,0.395,0.053,0.77,0.131,1.128   C8.054,44.938,8,45.326,8,45.772c0,1.486,0,2.972,0,4.456C8,50.624,8.053,51,8.131,51.357C8.054,51.719,8,52.109,8,52.556   c0,1.485,0,2.97,0,4.455c0,1.976,1.07,3.622,2.353,3.622c1.426,0,2.854,0,4.28,0c1.283,0,2.353-1.646,2.353-3.622   c0-1.485,0-2.97,0-4.455c0-0.407-0.055-0.795-0.139-1.163c0.083-0.368,0.139-0.756,0.139-1.164c0-1.484,0-2.97,0-4.456   c0-0.407-0.055-0.795-0.139-1.162c0.083-0.368,0.139-0.756,0.139-1.163c0-1.487,0-2.972,0-4.459   C16.986,37.015,15.916,35.368,14.633,35.368z"></path><path d="M26.47,25.194c-1.427,0-2.854,0-4.281,0c-0.693,0-1.219,0.388-1.595,0.97c-0.023,0.029-0.043,0.064-0.066,0.096   c-0.02,0.033-0.041,0.064-0.06,0.1c-0.379,0.579-0.631,1.39-0.631,2.456c0,1.486,0,2.972,0,4.458c0,0.395,0.053,0.77,0.132,1.127   c-0.077,0.361-0.132,0.751-0.132,1.196c0,1.486,0,2.973,0,4.459c0,0.395,0.053,0.771,0.132,1.128   c-0.077,0.361-0.132,0.75-0.132,1.196c0,1.487,0,2.972,0,4.459c0,0.395,0.053,0.77,0.132,1.129   c-0.077,0.361-0.132,0.751-0.132,1.198c0,1.485,0,2.969,0,4.454c0,0.396,0.053,0.77,0.132,1.127   c-0.077,0.361-0.132,0.752-0.132,1.198c0,1.485,0,2.97,0,4.455c0,0.396,0.053,0.771,0.132,1.129   c-0.077,0.362-0.132,0.751-0.132,1.199c0,1.485,0,2.97,0,4.455c0,1.976,1.071,3.622,2.353,3.622c1.427,0,2.854,0,4.281,0   c1.282,0,2.353-1.646,2.353-3.622c0-1.485,0-2.97,0-4.455c0-0.407-0.055-0.795-0.139-1.165c0.084-0.368,0.139-0.756,0.139-1.163   c0-1.485,0-2.97,0-4.455c0-0.407-0.055-0.795-0.139-1.163c0.084-0.369,0.139-0.755,0.139-1.162c0-1.485,0-2.969,0-4.454   c0-0.408-0.055-0.796-0.139-1.164c0.084-0.369,0.139-0.755,0.139-1.163c0-1.487,0-2.972,0-4.459c0-0.407-0.055-0.794-0.139-1.162   c0.084-0.367,0.139-0.755,0.139-1.162c0-1.486,0-2.973,0-4.459c0-0.407-0.055-0.794-0.139-1.162   c0.084-0.367,0.139-0.754,0.139-1.161c0-1.486,0-2.972,0-4.458C28.822,26.842,27.752,25.194,26.47,25.194z"></path><path d="M38.305,31.976c-1.427,0-2.854,0-4.281,0c-0.693,0-1.22,0.388-1.596,0.97c-0.023,0.029-0.043,0.064-0.066,0.096   c-0.021,0.033-0.042,0.064-0.061,0.1c-0.378,0.58-0.63,1.39-0.63,2.456c0,1.486,0,2.971,0,4.458c0,0.395,0.053,0.77,0.131,1.129   c-0.077,0.361-0.131,0.75-0.131,1.196c0,1.486,0,2.971,0,4.456c0,0.396,0.053,0.771,0.131,1.129   c-0.077,0.361-0.131,0.751-0.131,1.198c0,1.485,0,2.972,0,4.457c0,0.396,0.053,0.77,0.131,1.127   c-0.078,0.361-0.131,0.752-0.131,1.198c0,1.485,0,2.97,0,4.455c0,1.975,1.07,3.622,2.353,3.622c1.426,0,2.854,0,4.281,0   c1.282,0,2.353-1.647,2.353-3.622c0-1.485,0-2.97,0-4.455c0-0.407-0.056-0.795-0.139-1.163c0.083-0.369,0.139-0.755,0.139-1.162   c0-1.485,0-2.972,0-4.457c0-0.408-0.056-0.796-0.139-1.163c0.083-0.368,0.139-0.757,0.139-1.164c0-1.485,0-2.97,0-4.456   c0-0.407-0.056-0.795-0.139-1.162c0.083-0.368,0.139-0.756,0.139-1.163c0-1.487,0-2.972,0-4.458   C40.658,33.623,39.587,31.976,38.305,31.976z"></path><path d="M73.813,25.194c-1.428,0-2.854,0-4.281,0c-0.694,0-1.22,0.388-1.598,0.972c-0.021,0.027-0.04,0.061-0.063,0.09   c-0.02,0.035-0.043,0.068-0.064,0.105c-0.378,0.579-0.629,1.389-0.629,2.454c0,1.486,0,2.972,0,4.458   c0,0.395,0.054,0.771,0.132,1.128c-0.078,0.36-0.132,0.75-0.132,1.196c0,1.486,0,2.972,0,4.458c0,0.395,0.054,0.771,0.132,1.128   c-0.078,0.361-0.132,0.75-0.132,1.196c0,1.487,0,2.972,0,4.459c0,0.395,0.054,0.77,0.133,1.129   c-0.079,0.361-0.133,0.751-0.133,1.198c0,1.485,0,2.969,0,4.454c0,0.396,0.054,0.77,0.132,1.127   c-0.078,0.361-0.132,0.752-0.132,1.198c0,1.485,0,2.97,0,4.455c0,0.396,0.054,0.771,0.133,1.129   c-0.079,0.362-0.133,0.751-0.133,1.199c0,1.485,0,2.97,0,4.455c0,1.976,1.069,3.622,2.354,3.622c1.427,0,2.854,0,4.281,0   c1.282,0,2.353-1.646,2.353-3.622c0-1.485,0-2.97,0-4.455c0-0.407-0.056-0.795-0.139-1.165c0.083-0.368,0.139-0.756,0.139-1.163   c0-1.485,0-2.97,0-4.455c0-0.407-0.056-0.795-0.139-1.163c0.083-0.369,0.139-0.755,0.139-1.162c0-1.485,0-2.969,0-4.454   c0-0.408-0.056-0.796-0.139-1.164c0.083-0.369,0.139-0.755,0.139-1.163c0-1.487,0-2.972,0-4.459c0-0.407-0.056-0.794-0.139-1.162   c0.083-0.367,0.139-0.755,0.139-1.162c0-1.486,0-2.972,0-4.458c0-0.407-0.056-0.794-0.139-1.162   c0.083-0.368,0.139-0.755,0.139-1.162c0-1.486,0-2.972,0-4.458C76.165,26.842,75.095,25.194,73.813,25.194z"></path><path d="M50.141,25.194c-1.426,0-2.853,0-4.28,0c-0.693,0-1.219,0.388-1.596,0.97c-0.023,0.029-0.042,0.064-0.066,0.096   c-0.02,0.033-0.042,0.064-0.06,0.1c-0.379,0.579-0.631,1.39-0.631,2.456c0,1.486,0,2.972,0,4.458c0,0.395,0.053,0.771,0.132,1.128   c-0.078,0.36-0.132,0.75-0.132,1.196c0,1.486,0,2.972,0,4.458c0,0.395,0.053,0.771,0.132,1.128   c-0.078,0.361-0.132,0.75-0.132,1.196c0,1.487,0,2.972,0,4.459c0,0.395,0.053,0.77,0.132,1.129   c-0.078,0.361-0.132,0.751-0.132,1.198c0,1.485,0,2.969,0,4.454c0,0.396,0.053,0.77,0.131,1.127   c-0.077,0.361-0.131,0.752-0.131,1.198c0,1.485,0,2.97,0,4.455c0,0.396,0.053,0.771,0.132,1.129   c-0.078,0.362-0.132,0.751-0.132,1.199c0,1.485,0,2.97,0,4.455c0,1.976,1.07,3.622,2.353,3.622c1.427,0,2.854,0,4.28,0   c1.283,0,2.354-1.646,2.354-3.622c0-1.485,0-2.97,0-4.455c0-0.407-0.055-0.795-0.139-1.165c0.084-0.368,0.139-0.756,0.139-1.163   c0-1.485,0-2.97,0-4.455c0-0.407-0.055-0.795-0.139-1.163c0.084-0.369,0.139-0.755,0.139-1.162c0-1.485,0-2.969,0-4.454   c0-0.408-0.055-0.796-0.139-1.164c0.084-0.369,0.139-0.755,0.139-1.163c0-1.487,0-2.972,0-4.459c0-0.407-0.055-0.794-0.139-1.162   c0.084-0.367,0.139-0.755,0.139-1.162c0-1.486,0-2.972,0-4.458c0-0.407-0.055-0.794-0.139-1.162   c0.084-0.368,0.139-0.755,0.139-1.162c0-1.486,0-2.972,0-4.458C52.494,26.842,51.424,25.194,50.141,25.194z"></path><path d="M61.977,21.803c-1.427,0-2.854,0-4.281,0c-0.691,0-1.219,0.389-1.596,0.973c-0.021,0.027-0.041,0.061-0.063,0.09   c-0.021,0.035-0.045,0.068-0.064,0.105c-0.377,0.578-0.629,1.389-0.629,2.453c0,1.486,0,2.972,0,4.458   c0,0.395,0.053,0.771,0.131,1.129c-0.076,0.36-0.131,0.75-0.131,1.196c0,1.485,0,2.972,0,4.457c0,0.395,0.053,0.771,0.131,1.128   c-0.076,0.361-0.131,0.75-0.131,1.196c0,1.487,0,2.972,0,4.459c0,0.395,0.053,0.77,0.131,1.128c-0.076,0.36-0.131,0.75-0.131,1.196   c0,1.486,0,2.973,0,4.457c0,0.396,0.053,0.771,0.131,1.129c-0.076,0.361-0.131,0.752-0.131,1.198c0,1.485,0,2.97,0,4.455   c0,0.396,0.053,0.771,0.131,1.129c-0.076,0.36-0.131,0.752-0.131,1.198c0,1.484,0,2.97,0,4.455c0,0.396,0.053,0.771,0.131,1.129   c-0.076,0.36-0.131,0.751-0.131,1.197c0,1.485,0,2.971,0,4.455c0,1.976,1.07,3.623,2.352,3.623c1.428,0,2.854,0,4.281,0   c1.283,0,2.354-1.647,2.354-3.623c0-1.484,0-2.97,0-4.455c0-0.407-0.056-0.795-0.138-1.163c0.082-0.368,0.138-0.756,0.138-1.163   c0-1.485,0-2.971,0-4.455c0-0.407-0.056-0.795-0.138-1.164c0.082-0.368,0.138-0.756,0.138-1.163c0-1.485,0-2.97,0-4.455   c0-0.407-0.056-0.795-0.138-1.163c0.082-0.368,0.138-0.756,0.138-1.164c0-1.484,0-2.971,0-4.457c0-0.407-0.056-0.795-0.138-1.163   c0.082-0.367,0.138-0.754,0.138-1.161c0-1.487,0-2.972,0-4.459c0-0.407-0.056-0.794-0.138-1.161   c0.082-0.368,0.138-0.756,0.138-1.163c0-1.485,0-2.972,0-4.457c0-0.407-0.056-0.795-0.138-1.162   c0.082-0.368,0.138-0.755,0.138-1.163c0-1.486,0-2.972,0-4.458C64.33,23.45,63.26,21.803,61.977,21.803z"></path><path d="M88,42.38c0-1.974-1.071-3.621-2.354-3.621c-1.427,0-2.854,0-4.279,0c-0.694,0-1.221,0.389-1.598,0.973   c-0.021,0.027-0.041,0.061-0.063,0.09c-0.021,0.035-0.043,0.067-0.064,0.104c-0.377,0.579-0.63,1.39-0.63,2.454   c0,1.486,0,2.971,0,4.456c0,0.396,0.055,0.771,0.133,1.129c-0.078,0.361-0.133,0.751-0.133,1.198c0,1.485,0,2.972,0,4.457   c0,1.975,1.07,3.622,2.354,3.622c1.425,0,2.853,0,4.279,0c1.282,0,2.354-1.647,2.354-3.622c0-1.485,0-2.972,0-4.457   c0-0.408-0.056-0.796-0.14-1.163c0.084-0.368,0.14-0.757,0.14-1.164C88,45.351,88,43.866,88,42.38z"></path></g></svg>