<svg height='100px' width='100px'  fill="#000000" xmlns="http://www.w3.org/2000/svg" xmlns:xlink="http://www.w3.org/1999/xlink" xmlns:sketch="http://www.bohemiancoding.com/sketch/ns" viewBox="0 0 22 22" version="1.1" x="0px" y="0px"><title>ease-in</title><desc>Created with Sketch.</desc><g stroke="none" stroke-width="1" fill="none" fill-rule="evenodd" sketch:type="MSPage"><g sketch:type="MSArtboardGroup" fill="#000000"><path d="M2.01272156,21 C3.77380398,21 5.64914533,20.2138689 7.63733736,18.7681102 C9.88465968,17.133919 12.241113,14.684045 14.6488611,11.6306138 C16.2199216,9.63824357 17.7194808,7.50758264 19.0984431,5.37727854 C19.5810006,4.63179457 20.0142719,3.93920317 20.3919502,3.31695331 C20.5245337,3.09851323 20.6408243,2.90424468 20.7400295,2.73633238 C20.8001856,2.63451363 20.841659,2.5634399 20.8636554,2.52529754 C21.1437861,2.03954339 20.9784343,1.41789625 20.4943318,1.13680981 C20.0102293,0.855723363 19.3906959,1.02163933 19.1105652,1.50739348 C19.0333034,1.64136741 18.8816544,1.89804494 18.6620742,2.25981783 C18.2942614,2.86581352 17.8713537,3.54183858 17.3998478,4.27024928 C16.0529148,6.35107276 14.5886823,8.43153942 13.0604825,10.369555 C10.7578338,13.2897024 8.51974429,15.6165201 6.44879042,17.122461 C4.77507345,18.3395421 3.27670994,18.9676465 2.01272156,18.9676465 C1.45341089,18.9676465 1,19.4226043 1,19.9838232 C1,20.5450422 1.45341089,21 2.01272156,21 L2.01272156,21 Z" sketch:type="MSShapeGroup"></path></g></g></svg>