<svg height='100px' width='100px'  fill="#000000" xmlns="http://www.w3.org/2000/svg" xmlns:xlink="http://www.w3.org/1999/xlink" version="1.1" x="0px" y="0px" viewBox="0 0 100 100" style="enable-background:new 0 0 100 100;" xml:space="preserve"><path d="M31.7,55.9H19v3.9h13.9c0.4,1.3,1.1,2.7,1.8,3.9H22.8v3.9h14.5c1.2,1.5,2.4,2.7,3.9,3.9H26.7v3.9h21.1c3.2,1.3,6.6,2,10.2,2  c14.8,0,26.9-12.2,26.9-27.4S72.8,22.6,58,22.6c-3.6,0-7,0.7-10.2,2.1H26.7v3.9h14.6c-1.5,1.1-2.7,2.4-3.9,3.9H22.8v3.9h11.9  c-0.7,1.3-1.3,2.5-1.8,3.9H19v3.9h12.7c-0.2,1.3-0.4,2.6-0.5,3.9h-16V52h16C31.3,53.3,31.5,54.6,31.7,55.9z M77,40.2v3.9H31.7  c0.3-1.3,0.7-2.7,1.2-3.9H77z M31.2,52c-0.1-0.7-0.1-1.3-0.1-1.9c0-0.7,0-1.3,0.1-2h42V52H31.2z M69.8,63.7v3.9H37.4  c-1-1.2-1.9-2.5-2.7-3.9H69.8z M58.8,55.9v3.9H32.9c-0.5-1.3-0.9-2.5-1.2-3.9H58.8z M34.7,36.4c0.8-1.4,1.7-2.7,2.7-3.9h22.8v3.9  H34.7z M64.4,71.5v3.9H47.7c-2.3-1-4.5-2.4-6.5-3.9H64.4z M41.3,28.6c1.9-1.6,4.2-3,6.5-3.9h16.6v3.9H41.3z"></path></svg>