<svg height='100px' width='100px'  fill="#000000" xmlns="http://www.w3.org/2000/svg" xmlns:xlink="http://www.w3.org/1999/xlink" xmlns:sketch="http://www.bohemiancoding.com/sketch/ns" viewBox="0 0 100 100" version="1.1" x="0px" y="0px"><title>fade</title><desc>Created with Sketch.</desc><g stroke="none" stroke-width="1" fill="none" fill-rule="evenodd" sketch:type="MSPage"><g sketch:type="MSArtboardGroup" fill="#000000"><path d="M81.4668815,63.1252575 C88.9410164,63.1252575 95,57.0530618 95,49.5626288 C95,42.0721957 88.9410164,36 81.4668815,36 C73.9927465,36 67.9337629,42.0721957 67.9337629,49.5626288 C67.9337629,57.0530618 73.9927465,63.1252575 81.4668815,63.1252575 Z M59.2007414,52.8307763 C60.5197064,52.8307763 61.5889388,51.7592124 61.5889388,50.4373712 C61.5889388,49.1155301 60.5197064,48.0439662 59.2007414,48.0439662 C57.8817764,48.0439662 56.812544,49.1155301 56.812544,50.4373712 C56.812544,51.7592124 57.8817764,52.8307763 59.2007414,52.8307763 Z M48.0558203,41.6615526 C49.3747853,41.6615526 50.4440177,40.5899887 50.4440177,39.2681475 C50.4440177,37.9463064 49.3747853,36.8747425 48.0558203,36.8747425 C46.7368553,36.8747425 45.6676229,37.9463064 45.6676229,39.2681475 C45.6676229,40.5899887 46.7368553,41.6615526 48.0558203,41.6615526 Z M56.0164783,44.8527594 C57.3354432,44.8527594 58.4046756,43.7811954 58.4046756,42.4593543 C58.4046756,41.1375132 57.3354432,40.0659492 56.0164783,40.0659492 C54.6975133,40.0659492 53.6282809,41.1375132 53.6282809,42.4593543 C53.6282809,43.7811954 54.6975133,44.8527594 56.0164783,44.8527594 Z M56.0164783,60.8087932 C57.3354432,60.8087932 58.4046756,59.7372293 58.4046756,58.4153882 C58.4046756,57.093547 57.3354432,56.0219831 56.0164783,56.0219831 C54.6975133,56.0219831 53.6282809,57.093547 53.6282809,58.4153882 C53.6282809,59.7372293 54.6975133,60.8087932 56.0164783,60.8087932 Z M40.0951623,60.8087932 C41.4141273,60.8087932 42.4833597,59.7372293 42.4833597,58.4153882 C42.4833597,57.093547 41.4141273,56.0219831 40.0951623,56.0219831 C38.7761973,56.0219831 37.7069649,57.093547 37.7069649,58.4153882 C37.7069649,59.7372293 38.7761973,60.8087932 40.0951623,60.8087932 Z M43.2794255,52.8307763 C44.5983905,52.8307763 45.6676229,51.7592124 45.6676229,50.4373712 C45.6676229,49.1155301 44.5983905,48.0439662 43.2794255,48.0439662 C41.9604605,48.0439662 40.8912281,49.1155301 40.8912281,50.4373712 C40.8912281,51.7592124 41.9604605,52.8307763 43.2794255,52.8307763 Z M40.0951623,44.8527594 C41.4141273,44.8527594 42.4833597,43.7811954 42.4833597,42.4593543 C42.4833597,41.1375132 41.4141273,40.0659492 40.0951623,40.0659492 C38.7761973,40.0659492 37.7069649,41.1375132 37.7069649,42.4593543 C37.7069649,43.7811954 38.7761973,44.8527594 40.0951623,44.8527594 Z M52.8322151,52.8307763 C54.1511801,52.8307763 55.2204125,51.7592124 55.2204125,50.4373712 C55.2204125,49.1155301 54.1511801,48.0439662 52.8322151,48.0439662 C51.5132501,48.0439662 50.4440177,49.1155301 50.4440177,50.4373712 C50.4440177,51.7592124 51.5132501,52.8307763 52.8322151,52.8307763 Z M48.0558203,48.0439662 C49.3747853,48.0439662 50.4440177,46.9724022 50.4440177,45.6505611 C50.4440177,44.32872 49.3747853,43.257156 48.0558203,43.257156 C46.7368553,43.257156 45.6676229,44.32872 45.6676229,45.6505611 C45.6676229,46.9724022 46.7368553,48.0439662 48.0558203,48.0439662 Z M48.0558203,57.6175865 C49.3747853,57.6175865 50.4440177,56.5460225 50.4440177,55.2241814 C50.4440177,53.9023403 49.3747853,52.8307763 48.0558203,52.8307763 C46.7368553,52.8307763 45.6676229,53.9023403 45.6676229,55.2241814 C45.6676229,56.5460225 46.7368553,57.6175865 48.0558203,57.6175865 Z M48.0558203,64 C49.3747853,64 50.4440177,62.928436 50.4440177,61.6065949 C50.4440177,60.2847538 49.3747853,59.2131898 48.0558203,59.2131898 C46.7368553,59.2131898 45.6676229,60.2847538 45.6676229,61.6065949 C45.6676229,62.928436 46.7368553,64 48.0558203,64 Z M36.9108991,52.8307763 C38.2298641,52.8307763 39.2990965,51.7592124 39.2990965,50.4373712 C39.2990965,49.1155301 38.2298641,48.0439662 36.9108991,48.0439662 C35.5919341,48.0439662 34.5227017,49.1155301 34.5227017,50.4373712 C34.5227017,51.7592124 35.5919341,52.8307763 36.9108991,52.8307763 Z M27.9676235,52.027821 C28.8422357,52.027821 29.5512489,51.3289299 29.5512489,50.466804 C29.5512489,49.6046782 28.8422357,48.9057871 27.9676235,48.9057871 C27.0930113,48.9057871 26.383998,49.6046782 26.383998,50.466804 C26.383998,51.3289299 27.0930113,52.027821 27.9676235,52.027821 Z M17.4101203,41.1263742 C18.2847325,41.1263742 18.9937458,40.4274831 18.9937458,39.5653573 C18.9937458,38.7032314 18.2847325,38.0043403 17.4101203,38.0043403 C16.5355081,38.0043403 15.8264948,38.7032314 15.8264948,39.5653573 C15.8264948,40.4274831 16.5355081,41.1263742 17.4101203,41.1263742 Z M24.8003725,44.7687471 C25.6749847,44.7687471 26.383998,44.069856 26.383998,43.2077301 C26.383998,42.3456043 25.6749847,41.6467132 24.8003725,41.6467132 C23.9257603,41.6467132 23.2167471,42.3456043 23.2167471,43.2077301 C23.2167471,44.069856 23.9257603,44.7687471 24.8003725,44.7687471 Z M24.8003725,58.8178996 C25.6749847,58.8178996 26.383998,58.1190085 26.383998,57.2568827 C26.383998,56.3947568 25.6749847,55.6958657 24.8003725,55.6958657 C23.9257603,55.6958657 23.2167471,56.3947568 23.2167471,57.2568827 C23.2167471,58.1190085 23.9257603,58.8178996 24.8003725,58.8178996 Z M9.97166675,58.8178996 C10.846279,58.8178996 11.5552922,58.1190085 11.5552922,57.2568827 C11.5552922,56.3947568 10.846279,55.6958657 9.97166675,55.6958657 C9.09705456,55.6958657 8.38804128,56.3947568 8.38804128,57.2568827 C8.38804128,58.1190085 9.09705456,58.8178996 9.97166675,58.8178996 Z M13.2195932,52.027821 C14.0942054,52.027821 14.8032187,51.3289299 14.8032187,50.466804 C14.8032187,49.6046782 14.0942054,48.9057871 13.2195932,48.9057871 C12.344981,48.9057871 11.6359677,49.6046782 11.6359677,50.466804 C11.6359677,51.3289299 12.344981,52.027821 13.2195932,52.027821 Z M10.4132474,44.7687471 C11.2878596,44.7687471 11.9968729,44.069856 11.9968729,43.2077301 C11.9968729,42.3456043 11.2878596,41.6467132 10.4132474,41.6467132 C9.53863522,41.6467132 8.82962195,42.3456043 8.82962195,43.2077301 C8.82962195,44.069856 9.53863522,44.7687471 10.4132474,44.7687471 Z M21.6331216,52.027821 C22.5077338,52.027821 23.2167471,51.3289299 23.2167471,50.466804 C23.2167471,49.6046782 22.5077338,48.9057871 21.6331216,48.9057871 C20.7585094,48.9057871 20.0494961,49.6046782 20.0494961,50.466804 C20.0494961,51.3289299 20.7585094,52.027821 21.6331216,52.027821 Z M17.4101203,47.2596112 C18.2847325,47.2596112 18.9937458,46.5607201 18.9937458,45.6985942 C18.9937458,44.8364684 18.2847325,44.1375773 17.4101203,44.1375773 C16.5355081,44.1375773 15.8264948,44.8364684 15.8264948,45.6985942 C15.8264948,46.5607201 16.5355081,47.2596112 17.4101203,47.2596112 Z M17.4101203,56.3013637 C18.2847325,56.3013637 18.9937458,55.6024726 18.9937458,54.7403467 C18.9937458,53.8782209 18.2847325,53.1793298 17.4101203,53.1793298 C16.5355081,53.1793298 15.8264948,53.8782209 15.8264948,54.7403467 C15.8264948,55.6024726 16.5355081,56.3013637 17.4101203,56.3013637 Z M17.4101203,63.1252575 C18.2847325,63.1252575 18.9937458,62.4263664 18.9937458,61.5642406 C18.9937458,60.7021147 18.2847325,60.0032236 17.4101203,60.0032236 C16.5355081,60.0032236 15.8264948,60.7021147 15.8264948,61.5642406 C15.8264948,62.4263664 16.5355081,63.1252575 17.4101203,63.1252575 Z M6.58362547,52.027821 C7.45823767,52.027821 8.16725095,51.3289299 8.16725095,50.466804 C8.16725095,49.6046782 7.45823767,48.9057871 6.58362547,48.9057871 C5.70901328,48.9057871 5,49.6046782 5,50.466804 C5,51.3289299 5.70901328,52.027821 6.58362547,52.027821 Z" sketch:type="MSShapeGroup"></path></g></g></svg>