<svg height='100px' width='100px'  fill="#000000" xmlns="http://www.w3.org/2000/svg" data-name="Layer 1" viewBox="0 0 100 100" x="0px" y="0px"><title>Artboard 416</title><path d="M30,94H70A24,24,0,0,0,94,70V30A24,24,0,0,0,70,6H30A24,24,0,0,0,6,30V70A24,24,0,0,0,30,94ZM14,30A16,16,0,0,1,30,14H70A16,16,0,0,1,86,30V70A16,16,0,0,1,70,86H30A16,16,0,0,1,14,70Z"></path><path d="M30,74a4,4,0,0,0,4-4V54H46V70a4,4,0,0,0,8,0V54h8A12,12,0,0,0,74,42V30a4,4,0,0,0-8,0V42a4,4,0,0,1-4,4H54V30a4,4,0,0,0-8,0V46H34V30a4,4,0,0,0-8,0V70A4,4,0,0,0,30,74Z"></path><circle cx="70" cy="70" r="4"></circle></svg>